<svg width="80" height="80" viewBox="0 0 80 80" fill="none" xmlns="http://www.w3.org/2000/svg">
<path d="M21.2332 0H58.7668C70.4878 0 80 9.49751 80 21.2332V58.7668C80 70.4878 70.5025 80 58.7668 80H21.2332C9.51224 80 0 70.5025 0 58.7668V21.2332C0 9.49751 9.49752 0 21.2332 0Z" fill="white"/>
<path d="M46.4715 53.3039C46.3389 53.0536 46.1475 52.8327 45.9119 52.6855L45.8972 52.6708C43.497 51.2866 41.1852 49.7258 39.0354 47.9883C38.8734 47.8557 38.6673 47.7674 38.4759 47.7232C37.2243 47.4434 35.9285 47.2962 34.6474 47.2815C31.1135 47.2667 27.5648 47.8263 23.8099 49.0337C23.2504 49.1957 22.7056 49.4313 22.2049 49.7405L20.8208 50.5651H22.4258C22.4553 50.5651 22.4994 50.5651 22.5289 50.5651C22.6025 50.5651 22.6614 50.5651 22.735 50.5651C24.1044 50.4915 25.4886 50.4768 26.858 50.5504C29.1403 50.6682 30.9662 50.9921 32.6301 51.5517C34.9861 52.3615 36.7678 53.6131 38.0636 55.3801C39.0796 56.7937 39.8011 58.3693 40.184 60.0626C40.2429 60.2688 40.287 60.4896 40.3459 60.6958C40.5521 61.4467 40.7435 62.1683 40.7435 62.9192C40.7435 63.6555 40.6551 64.3623 40.5668 65.1279C40.5521 65.2899 40.5226 65.4666 40.5079 65.6286C40.4932 65.7464 40.4784 65.8495 40.4637 65.9673C40.3901 66.6004 40.3018 67.2483 40.449 67.9257C40.6699 69.0447 41.4061 69.6632 42.4663 69.6632C42.5252 69.6632 42.5988 69.6632 42.6724 69.6632C44.1008 69.5601 45.4849 69.192 46.766 68.5735C47.3991 68.2791 47.8556 67.7195 48.0028 67.0569C48.0617 66.836 48.1354 66.571 48.1795 66.2912C48.6066 63.7291 48.6213 61.1228 48.2384 58.5607C47.9439 56.4992 47.355 54.7911 46.4715 53.3039Z" fill="#08AED5"/>
<path d="M73.9185 39.4037C73.2117 36.282 71.5183 33.8377 68.8679 32.1296C67.3218 31.1431 65.6284 30.4657 63.8172 30.1418C63.7436 30.1271 63.7142 30.1123 63.6995 30.1123C63.6995 30.0976 63.6847 30.0387 63.6847 29.9504C63.6553 29.0816 63.5669 28.1981 63.4491 27.3293C62.6393 21.8223 60.136 17.8613 55.8217 15.1961C53.8044 13.9445 51.5515 13.0904 48.9157 12.5456C44.1596 11.5738 40.0367 12.2217 36.326 14.5482C33.8964 16.0648 31.776 18.1999 29.8176 21.086C29.6704 21.2922 29.5231 21.513 29.4495 21.5867C29.3464 21.5572 29.1256 21.4394 28.9047 21.3216C26.2837 19.8933 23.1767 19.7608 20.3937 20.9829C17.7138 22.1609 15.7849 24.4138 15.1075 27.1674C14.7983 28.4043 14.2535 29.0521 13.0608 29.6411C9.55626 31.3639 7.30335 34.2353 6.33152 38.1963C6.28734 38.373 6.21372 38.6969 6.41987 38.9472C6.62601 39.1976 6.97941 39.1828 7.09721 39.1828C7.65675 39.1681 8.24575 39.1681 8.80529 39.1828H9.02616C9.23231 39.1828 9.7624 39.1976 9.95382 38.5202C11.0287 34.8979 13.4878 32.5714 17.2721 31.6143C17.9641 31.4376 18.2292 31.0695 18.2145 30.3479C18.1556 28.3306 18.6268 26.8581 19.7017 25.7243C22.1313 23.1769 25.8861 22.9561 28.6249 25.1795C29.0961 25.5476 29.5084 25.9747 29.9354 26.4311C30.0974 26.5931 30.2594 26.7698 30.4213 26.9318L30.9073 27.4177L31.2165 26.6226C31.2901 26.4311 31.3637 26.2544 31.4226 26.063C33.9995 17.9644 41.6122 14.7985 47.7966 15.844C52.8473 16.698 56.5285 19.3927 58.7666 23.8543C60.0035 26.3281 60.3569 29.0963 59.8268 32.1149C59.7826 32.4094 59.7385 32.7334 59.9593 32.9984C60.1655 33.2487 60.5042 33.2782 60.7692 33.2782C61.6674 33.2782 62.5656 33.3371 63.4491 33.4843C66.9831 34.0586 69.9428 36.9447 70.4876 40.3755C71.0766 44.0273 69.2802 47.5024 65.9229 49.2252C64.5829 49.9025 63.0957 50.2264 61.2404 50.2412H60.4011C59.017 50.2412 57.6181 50.2559 56.2045 50.2412C55.91 50.197 55.6302 50.1528 55.3505 50.0939C53.3921 49.7405 51.7576 49.1368 50.344 48.2681C48.4151 47.0753 46.972 45.3525 46.0591 43.1144C45.4112 41.5683 44.9842 39.9485 44.7928 38.2993C44.7191 37.6514 44.8075 37.0036 44.8811 36.3115C44.9106 36.1053 44.94 35.8992 44.9547 35.693C44.9695 35.5311 44.9989 35.3691 45.0136 35.1924C45.0873 34.6476 45.1462 34.0733 45.1167 33.4843C45.0725 32.7481 44.8222 32.1885 44.3805 31.8057C43.9387 31.4376 43.3497 31.2756 42.5988 31.3492C41.3913 31.4817 40.1986 31.7762 39.0795 32.2474C38.1224 32.645 37.5482 33.3812 37.3567 34.4414C36.9444 36.7532 36.8708 39.1092 37.1359 41.4504C37.3862 43.6739 37.8574 45.4262 38.6378 46.9575C38.7556 47.1931 38.9323 47.3846 39.1532 47.5171C42.2307 49.3282 44.8222 51.1394 47.0751 53.0831C47.2813 53.2598 47.5169 53.3776 47.7819 53.4217C48.7979 53.5984 49.8434 53.7015 50.8741 53.7162C50.9477 53.7162 51.0214 53.7162 51.095 53.7162C51.9049 53.7162 52.7 53.6868 53.5099 53.6279C53.7013 53.731 53.9222 53.7457 54.143 53.7457C56.6904 53.7162 59.282 53.7162 61.7852 53.7162C62.9632 53.7162 64.1265 53.5543 65.2603 53.245C71.3858 51.5664 75.2732 45.3673 73.9185 39.4037Z" fill="#08AED5"/>
</svg>
